<svg width="22" height="22" viewBox="0 0 22 22" fill="none" xmlns="http://www.w3.org/2000/svg">
<path d="M5.5 10.6719C4.46165 10.6719 3.44662 10.364 2.58326 9.78709C1.7199 9.21021 1.04699 8.39028 0.649635 7.43096C0.252275 6.47165 0.148307 5.41605 0.35088 4.39765C0.553452 3.37925 1.05347 2.44379 1.78769 1.70957C2.52192 0.975341 3.45738 0.475327 4.47578 0.272755C5.49418 0.0701822 6.54978 0.17415 7.50909 0.57151C8.4684 0.96887 9.28834 1.64178 9.86522 2.50513C10.4421 3.36849 10.75 4.38353 10.75 5.42188C10.7474 6.81345 10.1934 8.14727 9.20939 9.13127C8.2254 10.1153 6.89158 10.6692 5.5 10.6719ZM5.5 1.67188C4.75832 1.67188 4.0333 1.89181 3.41661 2.30387C2.79993 2.71592 2.31928 3.30159 2.03545 3.98681C1.75163 4.67204 1.67736 5.42604 1.82206 6.15347C1.96675 6.8809 2.3239 7.54908 2.84835 8.07353C3.3728 8.59797 4.04098 8.95513 4.76841 9.09982C5.49584 9.24452 6.24984 9.17025 6.93507 8.88643C7.62029 8.6026 8.20596 8.12195 8.61801 7.50527C9.03007 6.88858 9.25 6.16356 9.25 5.42188C9.25 4.42732 8.85491 3.47349 8.15165 2.77023C7.44839 2.06697 6.49456 1.67188 5.5 1.67188ZM16.5 21.6719C15.4616 21.6719 14.4466 21.364 13.5833 20.7871C12.7199 20.2102 12.047 19.3903 11.6496 18.431C11.2523 17.4717 11.1483 16.4161 11.3509 15.3977C11.5535 14.3793 12.0535 13.4438 12.7877 12.7096C13.5219 11.9753 14.4574 11.4753 15.4758 11.2728C16.4942 11.0702 17.5498 11.1741 18.5091 11.5715C19.4684 11.9689 20.2883 12.6418 20.8652 13.5051C21.4421 14.3685 21.75 15.3835 21.75 16.4219C21.7474 17.8135 21.1934 19.1473 20.2094 20.1313C19.2254 21.1153 17.8916 21.6692 16.5 21.6719ZM16.5 12.6719C15.7583 12.6719 15.0333 12.8918 14.4166 13.3039C13.7999 13.7159 13.3193 14.3016 13.0355 14.9868C12.7516 15.672 12.6774 16.426 12.8221 17.1535C12.9668 17.8809 13.3239 18.5491 13.8484 19.0735C14.3728 19.598 15.041 19.9551 15.7684 20.0998C16.4958 20.2445 17.2498 20.1703 17.9351 19.8864C18.6203 19.6026 19.206 19.122 19.618 18.5053C20.0301 17.8886 20.25 17.1636 20.25 16.4219C20.25 15.4273 19.8549 14.4735 19.1517 13.7702C18.4484 13.067 17.4946 12.6719 16.5 12.6719ZM5.5 21.6719C4.46165 21.6719 3.44662 21.364 2.58326 20.7871C1.7199 20.2102 1.04699 19.3903 0.649635 18.431C0.252275 17.4717 0.148307 16.4161 0.35088 15.3977C0.553452 14.3793 1.05347 13.4438 1.78769 12.7096C2.52192 11.9753 3.45738 11.4753 4.47578 11.2728C5.49418 11.0702 6.54978 11.1741 7.50909 11.5715C8.4684 11.9689 9.28834 12.6418 9.86522 13.5051C10.4421 14.3685 10.75 15.3835 10.75 16.4219C10.7474 17.8135 10.1934 19.1473 9.20939 20.1313C8.2254 21.1153 6.89158 21.6692 5.5 21.6719ZM5.5 12.6719C4.75832 12.6719 4.0333 12.8918 3.41661 13.3039C2.79993 13.7159 2.31928 14.3016 2.03545 14.9868C1.75163 15.672 1.67736 16.426 1.82206 17.1535C1.96675 17.8809 2.3239 18.5491 2.84835 19.0735C3.3728 19.598 4.04098 19.9551 4.76841 20.0998C5.49584 20.2445 6.24984 20.1703 6.93507 19.8864C7.62029 19.6026 8.20596 19.122 8.61801 18.5053C9.03007 17.8886 9.25 17.1636 9.25 16.4219C9.25 15.4273 8.85491 14.4735 8.15165 13.7702C7.44839 13.067 6.49456 12.6719 5.5 12.6719ZM16.5 10.6719C15.4616 10.6719 14.4466 10.364 13.5833 9.78709C12.7199 9.21021 12.047 8.39028 11.6496 7.43096C11.2523 6.47165 11.1483 5.41605 11.3509 4.39765C11.5535 3.37925 12.0535 2.44379 12.7877 1.70957C13.5219 0.975341 14.4574 0.475327 15.4758 0.272755C16.4942 0.0701822 17.5498 0.17415 18.5091 0.57151C19.4684 0.96887 20.2883 1.64178 20.8652 2.50513C21.4421 3.36849 21.75 4.38353 21.75 5.42188C21.7474 6.81345 21.1934 8.14727 20.2094 9.13127C19.2254 10.1153 17.8916 10.6692 16.5 10.6719ZM16.5 1.67188C15.7583 1.67188 15.0333 1.89181 14.4166 2.30387C13.7999 2.71592 13.3193 3.30159 13.0355 3.98681C12.7516 4.67204 12.6774 5.42604 12.8221 6.15347C12.9668 6.8809 13.3239 7.54908 13.8484 8.07353C14.3728 8.59797 15.041 8.95513 15.7684 9.09982C16.4958 9.24452 17.2498 9.17025 17.9351 8.88643C18.6203 8.6026 19.206 8.12195 19.618 7.50527C20.0301 6.88858 20.25 6.16356 20.25 5.42188C20.25 4.42732 19.8549 3.47349 19.1517 2.77023C18.4484 2.06697 17.4946 1.67188 16.5 1.67188Z" fill="#F5F5F5"/>
</svg>
