<svg width="21" height="22" viewBox="0 0 21 22" fill="none" xmlns="http://www.w3.org/2000/svg">
<path d="M10.3304 21.674H5.89043C4.61962 21.7118 3.38555 21.2449 2.45798 20.3754C1.53041 19.5059 0.984802 18.3046 0.94043 17.034V4.814C0.984802 3.54341 1.53041 2.34206 2.45798 1.47258C3.38555 0.603104 4.61962 0.136222 5.89043 0.174001H10.3304C11.6003 0.136261 12.8333 0.603454 13.7592 1.4732C14.6852 2.34294 15.2286 3.5443 15.2704 4.814C15.2704 5.01557 15.1904 5.20888 15.0478 5.3514C14.9053 5.49393 14.712 5.574 14.5104 5.574C14.3089 5.574 14.1156 5.49393 13.973 5.3514C13.8305 5.20888 13.7504 5.01557 13.7504 4.814C13.7064 3.94828 13.3224 3.13494 12.682 2.55072C12.0416 1.9665 11.1965 1.65863 10.3304 1.694H5.89043C5.02362 1.65598 4.17706 1.96294 3.53608 2.5477C2.8951 3.13245 2.51192 3.94736 2.47043 4.814V17.034C2.51192 17.9006 2.8951 18.7156 3.53608 19.3003C4.17706 19.8851 5.02362 20.192 5.89043 20.154H10.3304C11.1965 20.1894 12.0416 19.8815 12.682 19.2973C13.3224 18.7131 13.7064 17.8997 13.7504 17.034C13.7504 16.8324 13.8305 16.6391 13.973 16.4966C14.1156 16.3541 14.3089 16.274 14.5104 16.274C14.712 16.274 14.9053 16.3541 15.0478 16.4966C15.1904 16.6391 15.2704 16.8324 15.2704 17.034C15.2286 18.3037 14.6852 19.5051 13.7592 20.3748C12.8333 21.2446 11.6003 21.7117 10.3304 21.674ZM6.88043 10.924C6.88043 11.0238 6.90009 11.1226 6.93828 11.2148C6.97647 11.307 7.03246 11.3908 7.10303 11.4614C7.1736 11.532 7.25738 11.588 7.34959 11.6262C7.4418 11.6643 7.54063 11.684 7.64043 11.684H17.7104L16.0004 13.354C15.9291 13.4247 15.8724 13.5088 15.8338 13.6015C15.7951 13.6941 15.7752 13.7936 15.7752 13.894C15.7752 13.9944 15.7951 14.0939 15.8338 14.1865C15.8724 14.2792 15.9291 14.3633 16.0004 14.434C16.0712 14.5049 16.1554 14.5608 16.2482 14.5986C16.3409 14.6364 16.4403 14.6552 16.5404 14.654C16.6391 14.655 16.7369 14.6361 16.828 14.5983C16.919 14.5605 17.0015 14.5046 17.0704 14.434L20.0704 11.434C20.1418 11.3633 20.1984 11.2792 20.2371 11.1865C20.2757 11.0939 20.2956 10.9944 20.2956 10.894C20.2956 10.7936 20.2757 10.6941 20.2371 10.6015C20.1984 10.5088 20.1418 10.4247 20.0704 10.354L17.0704 7.354C17.0006 7.28295 16.9174 7.22651 16.8255 7.18799C16.7336 7.14946 16.635 7.12962 16.5354 7.12962C16.4358 7.12962 16.3372 7.14946 16.2454 7.18799C16.1535 7.22651 16.0702 7.28295 16.0004 7.354C15.9291 7.42467 15.8724 7.50877 15.8338 7.60146C15.7951 7.69415 15.7752 7.79358 15.7752 7.894C15.7752 7.99443 15.7951 8.09386 15.8338 8.18654C15.8724 8.27923 15.9291 8.36334 16.0004 8.434L17.6704 10.104H7.64043C7.53537 10.1037 7.43138 10.1251 7.33503 10.167C7.23868 10.2089 7.15207 10.2703 7.08065 10.3474C7.00923 10.4244 6.95457 10.5155 6.92011 10.6147C6.88564 10.714 6.87214 10.8193 6.88043 10.924Z" fill="#F5F5F5"/>
</svg>
