<svg width="44" height="43" viewBox="0 0 44 43" fill="none" xmlns="http://www.w3.org/2000/svg">
<path fill-rule="evenodd" clip-rule="evenodd" d="M27.9724 11.6476C26.2045 10.4664 24.1261 9.83594 22 9.83594V-0.914062C26.2523 -0.914062 30.4091 0.346891 33.9448 2.70934C37.4804 5.07178 40.2361 8.42963 41.8634 12.3582C43.4907 16.2868 43.9165 20.6098 43.0869 24.7804C42.2573 28.9509 40.2096 32.7819 37.2028 35.7887C34.196 38.7956 30.365 40.8432 26.1944 41.6728C22.0239 42.5024 17.7009 42.0766 13.7723 40.4494C9.84369 38.822 6.48585 36.0664 4.12341 32.5307C1.76095 28.995 0.5 24.8382 0.5 20.5859H11.25C11.25 22.7121 11.8805 24.7905 13.0617 26.5583C14.2429 28.3262 15.9218 29.704 17.8862 30.5176C19.8504 31.3313 22.0119 31.5442 24.0972 31.1293C26.1825 30.7146 28.0979 29.6908 29.6014 28.1874C31.1048 26.6839 32.1287 24.7684 32.5434 22.6832C32.9582 20.5979 32.7454 18.4364 31.9317 16.4721C31.118 14.5078 29.7402 12.8288 27.9724 11.6476Z" fill="url(#paint0_linear_834_8734)"/>
<path fill-rule="evenodd" clip-rule="evenodd" d="M11.25 -0.914057C11.25 0.497653 10.9719 1.89554 10.4317 3.19979C9.89146 4.50404 9.09963 5.68911 8.10139 6.68734C7.10317 7.68558 5.9181 8.47741 4.61385 9.01765C3.30959 9.55788 1.91171 9.83594 0.5 9.83594L0.5 20.5859C3.32342 20.5859 6.11919 20.0298 8.7277 18.9494C11.3362 17.8689 13.7064 16.2852 15.7028 14.2887C17.6992 12.2923 19.2829 9.92216 20.3634 7.31364C21.4439 4.70513 22 1.90935 22 -0.914062L11.25 -0.914057Z" fill="url(#paint1_linear_834_8734)"/>
<defs>
<linearGradient id="paint0_linear_834_8734" x1="0.5" y1="-0.914063" x2="43.5" y2="42.0859" gradientUnits="userSpaceOnUse">
<stop stop-color="white"/>
<stop offset="1" stop-color="#8A8A8A"/>
</linearGradient>
<linearGradient id="paint1_linear_834_8734" x1="0.5" y1="-0.914063" x2="43.5" y2="42.0859" gradientUnits="userSpaceOnUse">
<stop stop-color="white"/>
<stop offset="1" stop-color="#8A8A8A"/>
</linearGradient>
</defs>
</svg>
