<svg width="42" height="43" viewBox="0 0 42 43" fill="none" xmlns="http://www.w3.org/2000/svg">
<rect y="0.921875" width="42" height="42" rx="6" fill="#222222"/>
<path d="M21.1801 25.4127C20.4384 25.4127 19.7134 25.1927 19.0967 24.7807C18.48 24.3686 17.9994 23.783 17.7156 23.0977C17.4317 22.4125 17.3575 21.6585 17.5022 20.9311C17.6469 20.2037 18.004 19.5355 18.5285 19.011C19.0529 18.4866 19.7211 18.1294 20.4485 17.9847C21.176 17.84 21.93 17.9143 22.6152 18.1981C23.3004 18.482 23.8861 18.9626 24.2981 19.5793C24.7102 20.196 24.9301 20.921 24.9301 21.6627C24.9301 22.1551 24.8331 22.6428 24.6447 23.0977C24.4562 23.5527 24.18 23.9661 23.8318 24.3143C23.4835 24.6626 23.0702 24.9388 22.6152 25.1272C22.1602 25.3157 21.6726 25.4127 21.1801 25.4127ZM21.1801 19.2827C20.7094 19.2827 20.2492 19.4223 19.8579 19.6838C19.4665 19.9453 19.1614 20.317 18.9813 20.7519C18.8011 21.1868 18.754 21.6653 18.8458 22.127C18.9377 22.5887 19.1644 23.0127 19.4972 23.3456C19.8301 23.6784 20.2541 23.9051 20.7158 23.997C21.1775 24.0888 21.656 24.0417 22.0909 23.8615C22.5258 23.6814 22.8975 23.3763 23.159 22.9849C23.4205 22.5935 23.5601 22.1334 23.5601 21.6627C23.5601 21.0315 23.3094 20.4261 22.863 19.9798C22.4167 19.5334 21.8113 19.2827 21.1801 19.2827ZM21.1801 32.7127C18.5701 32.7127 16.5201 31.3027 16.5201 29.5027C16.5201 27.7027 18.5701 26.2927 21.1801 26.2927C23.7901 26.2927 25.8401 27.7027 25.8401 29.5027C25.8401 31.3027 23.7901 32.7127 21.1801 32.7127ZM21.1801 27.7127C19.2701 27.7127 17.9401 28.6527 17.9401 29.5027C17.9401 30.3527 19.2701 31.2927 21.1801 31.2927C23.0901 31.2927 24.4201 30.3427 24.4201 29.5027C24.4201 28.6627 23.0901 27.7127 21.1801 27.7127ZM26.1801 17.9127C25.5109 17.9068 24.8585 17.7029 24.305 17.3268C23.7515 16.9508 23.3216 16.4193 23.0696 15.7993C22.8176 15.1794 22.7548 14.4987 22.889 13.8431C23.0231 13.1875 23.3483 12.5863 23.8236 12.1152C24.2989 11.6441 24.903 11.3242 25.5597 11.1958C26.2165 11.0674 26.8966 11.1363 27.5142 11.3937C28.1319 11.6511 28.6596 12.0856 29.0308 12.6425C29.402 13.1993 29.6001 13.8535 29.6001 14.5227C29.6014 14.9687 29.5147 15.4106 29.3449 15.823C29.1752 16.2355 28.9257 16.6104 28.6108 16.9262C28.2958 17.2421 27.9217 17.4927 27.5097 17.6637C27.0978 17.8347 26.6561 17.9227 26.2101 17.9227L26.1801 17.9127ZM26.1801 12.5527C25.7846 12.5527 25.3979 12.67 25.069 12.8897C24.7401 13.1095 24.4837 13.4219 24.3324 13.7873C24.181 14.1528 24.1414 14.5549 24.2185 14.9429C24.2957 15.3308 24.4862 15.6872 24.7659 15.9669C25.0456 16.2466 25.402 16.4371 25.7899 16.5143C26.1779 16.5914 26.58 16.5518 26.9455 16.4004C27.3109 16.2491 27.6233 15.9927 27.8431 15.6638C28.0628 15.3349 28.1801 14.9482 28.1801 14.5527C28.1802 14.0274 27.9736 13.5232 27.605 13.149C27.2364 12.7747 26.7353 12.5606 26.2101 12.5527H26.1801ZM16.1201 17.9227C15.4501 17.9227 14.795 17.7241 14.2378 17.3521C13.6805 16.98 13.246 16.4511 12.9891 15.8323C12.7323 15.2134 12.6645 14.5323 12.7945 13.875C12.9245 13.2177 13.2464 12.6136 13.7195 12.1391C14.1926 11.6646 14.7957 11.341 15.4527 11.209C16.1096 11.0771 16.7909 11.1428 17.4105 11.3979C18.0301 11.6529 18.5602 12.0859 18.9339 12.642C19.3076 13.1982 19.5081 13.8526 19.5101 14.5227C19.5114 14.9687 19.4247 15.4106 19.2549 15.823C19.0852 16.2355 18.8357 16.6104 18.5208 16.9262C18.2058 17.2421 17.8317 17.4927 17.4197 17.6637C17.0078 17.8347 16.5661 17.9227 16.1201 17.9227ZM16.1201 12.5627C15.7246 12.5627 15.3379 12.68 15.009 12.8997C14.6801 13.1195 14.4237 13.4319 14.2724 13.7973C14.121 14.1628 14.0814 14.5649 14.1585 14.9529C14.2357 15.3408 14.4262 15.6972 14.7059 15.9769C14.9856 16.2566 15.342 16.4471 15.7299 16.5243C16.1179 16.6014 16.52 16.5618 16.8855 16.4104C17.2509 16.2591 17.5633 16.0027 17.7831 15.6738C18.0028 15.3449 18.1201 14.9582 18.1201 14.5627C18.1214 14.2992 18.0707 14.038 17.9708 13.7942C17.8708 13.5504 17.7237 13.3288 17.5379 13.142C17.352 12.9552 17.1311 12.807 16.8878 12.7059C16.6445 12.6047 16.3836 12.5527 16.1201 12.5527V12.5627ZM31.1201 21.8627C31.1201 20.0127 28.8901 18.5627 26.0501 18.5627C25.9491 18.5507 25.8467 18.5603 25.7497 18.5908C25.6527 18.6212 25.5632 18.6719 25.4872 18.7394C25.4112 18.807 25.3503 18.8899 25.3086 18.9827C25.267 19.0754 25.2454 19.176 25.2454 19.2777C25.2454 19.3794 25.267 19.4799 25.3086 19.5727C25.3503 19.6655 25.4112 19.7484 25.4872 19.8159C25.5632 19.8835 25.6527 19.9341 25.7497 19.9646C25.8467 19.9951 25.9491 20.0046 26.0501 19.9927C28.1901 19.9927 29.6901 20.9927 29.6901 21.8627C29.6901 22.7327 28.1901 23.7427 26.0501 23.7427C25.8618 23.7427 25.6812 23.8175 25.5481 23.9506C25.4149 24.0838 25.3401 24.2644 25.3401 24.4527C25.3401 24.641 25.4149 24.8216 25.5481 24.9547C25.6812 25.0879 25.8618 25.1627 26.0501 25.1627C28.9001 25.1527 31.1301 23.7127 31.1301 21.8527L31.1201 21.8627ZM16.6601 24.2927C16.6601 24.1986 16.6414 24.1054 16.6051 24.0186C16.5688 23.9318 16.5156 23.8531 16.4486 23.7871C16.3816 23.721 16.3022 23.6689 16.2149 23.6338C16.1276 23.5987 16.0342 23.5814 15.9401 23.5827C13.8001 23.5827 12.3001 22.5827 12.3001 21.7027C12.3001 20.8227 13.8001 19.8327 15.9401 19.8327C16.0411 19.8446 16.1435 19.8351 16.2405 19.8046C16.3376 19.7741 16.427 19.7235 16.5031 19.6559C16.5791 19.5884 16.6399 19.5055 16.6816 19.4127C16.7233 19.3199 16.7448 19.2194 16.7448 19.1177C16.7448 19.016 16.7233 18.9154 16.6816 18.8227C16.6399 18.7299 16.5791 18.647 16.5031 18.5794C16.427 18.5119 16.3376 18.4612 16.2405 18.4308C16.1435 18.4003 16.0411 18.3907 15.9401 18.4027C13.1001 18.4027 10.8701 19.8527 10.8701 21.7027C10.8701 23.5527 13.1001 25.0027 15.9401 25.0027C16.0342 25.004 16.1276 24.9866 16.2149 24.9515C16.3022 24.9164 16.3816 24.8644 16.4486 24.7983C16.5156 24.7322 16.5688 24.6535 16.6051 24.5667C16.6414 24.4799 16.6601 24.3868 16.6601 24.2927Z" fill="#F5F5F5"/>
</svg>
