<svg width="42" height="43" viewBox="0 0 42 43" fill="none" xmlns="http://www.w3.org/2000/svg">
<rect y="0.921875" width="42" height="42" rx="6" fill="#222222"/>
<path d="M17.7503 32.0722C17.2941 32.0685 16.8466 31.948 16.4503 31.7222L14.8203 30.7722C14.5237 30.6025 14.2639 30.3754 14.0561 30.1041C13.8483 29.8328 13.6968 29.5228 13.6103 29.1922C13.5188 28.8583 13.4946 28.5095 13.5393 28.1661C13.5839 27.8227 13.6964 27.4917 13.8703 27.1922L14.3103 26.4422C14.0944 26.1225 13.9006 25.7884 13.7303 25.4422H12.8303C12.4888 25.4409 12.151 25.3724 11.836 25.2405C11.5211 25.1086 11.2352 24.916 10.9947 24.6737C10.7542 24.4313 10.5638 24.1439 10.4343 23.828C10.3049 23.512 10.2389 23.1737 10.2403 22.8322V20.9222C10.2432 20.5886 10.3118 20.2588 10.4422 19.9516C10.5726 19.6445 10.7622 19.3661 11.0003 19.1322C11.2403 18.8921 11.5257 18.7021 11.8399 18.5734C12.1541 18.4446 12.4907 18.3796 12.8303 18.3822H13.7103C13.8819 18.0348 14.0791 17.7005 14.3003 17.3822L13.8603 16.5922C13.6906 16.2948 13.5819 15.9666 13.5404 15.6268C13.4989 15.2869 13.5255 14.9422 13.6186 14.6127C13.7116 14.2832 13.8694 13.9756 14.0825 13.7077C14.2957 13.4397 14.5601 13.2169 14.8603 13.0522L16.5003 12.1122C16.7983 11.9453 17.1264 11.8388 17.4656 11.7987C17.8049 11.7586 18.1487 11.7858 18.4775 11.8786C18.8062 11.9715 19.1135 12.1283 19.3816 12.3399C19.6498 12.5516 19.8736 12.814 20.0403 13.1122L20.4703 13.8622C20.8233 13.8422 21.1772 13.8422 21.5303 13.8622L22.0003 13.0722C22.1713 12.7767 22.3988 12.5177 22.6699 12.3101C22.941 12.1025 23.2503 11.9503 23.5803 11.8622C23.9139 11.7679 24.2631 11.7423 24.6069 11.787C24.9507 11.8317 25.2819 11.9457 25.5803 12.1222L27.2103 13.0622C27.8067 13.4073 28.2418 13.975 28.4199 14.6406C28.598 15.3063 28.5046 16.0154 28.1603 16.6122L27.7303 17.3722C27.9554 17.6898 28.156 18.0241 28.3303 18.3722H29.2303C29.919 18.3802 30.5767 18.66 31.06 19.1508C31.5432 19.6415 31.8129 20.3035 31.8103 20.9922V22.9222C31.8024 23.6075 31.5253 24.2622 31.0388 24.7449C30.5524 25.2276 29.8956 25.4997 29.2103 25.5022H28.3203C28.1563 25.8265 27.9727 26.1405 27.7703 26.4422L28.2203 27.2322C28.3872 27.5303 28.4937 27.8583 28.5338 28.1976C28.5739 28.5369 28.5467 28.8807 28.4539 29.2095C28.361 29.5382 28.2042 29.8455 27.9926 30.1136C27.7809 30.3818 27.5185 30.6056 27.2203 30.7722L25.5803 31.7122C25.2825 31.8805 24.9544 31.9881 24.6148 32.0289C24.2753 32.0697 23.931 32.0428 23.6019 31.9499C23.2728 31.8569 22.9653 31.6997 22.6973 31.4872C22.4293 31.2748 22.2059 31.0114 22.0403 30.7122L21.6003 29.9622C21.2275 29.9922 20.853 29.9922 20.4803 29.9622L20.0203 30.7422C19.7944 31.1458 19.4649 31.4818 19.0659 31.7156C18.6669 31.9493 18.2127 32.0725 17.7503 32.0722ZM12.8503 19.9222C12.5601 19.9216 12.2808 20.0326 12.0703 20.2322C11.9682 20.3348 11.8875 20.4565 11.8326 20.5904C11.7776 20.7242 11.7497 20.8676 11.7503 21.0122V22.8922C11.7678 23.1683 11.8887 23.4275 12.0889 23.6184C12.289 23.8093 12.5537 23.9178 12.8303 23.9222H14.2103C14.3584 23.9199 14.5037 23.9626 14.6269 24.0447C14.7502 24.1269 14.8455 24.2446 14.9003 24.3822C15.1334 24.9319 15.4358 25.4494 15.8003 25.9222C15.8896 26.0418 15.9427 26.1846 15.9534 26.3334C15.964 26.4823 15.9317 26.6312 15.8603 26.7622L15.1703 27.9322C15.0299 28.1887 14.9907 28.4883 15.0603 28.7722C15.136 29.0512 15.3195 29.2886 15.5703 29.4322L17.2003 30.3822C17.3254 30.4568 17.4645 30.505 17.6089 30.5239C17.7533 30.5428 17.9001 30.5321 18.0403 30.4922C18.3205 30.414 18.5602 30.2315 18.7103 29.9822L19.4003 28.7822C19.4763 28.6549 19.5876 28.5522 19.7206 28.4865C19.8537 28.4209 20.0029 28.3951 20.1503 28.4122C20.7281 28.4823 21.3124 28.4823 21.8903 28.4122C22.0371 28.3887 22.1875 28.4106 22.3216 28.4749C22.4556 28.5393 22.5668 28.643 22.6403 28.7722L23.3203 29.9522C23.4649 30.2054 23.7041 30.3908 23.9854 30.4677C24.2667 30.5446 24.5669 30.5067 24.8203 30.3622L26.4503 29.4222C26.577 29.353 26.6884 29.2588 26.7777 29.1454C26.8671 29.032 26.9326 28.9016 26.9703 28.7622C27.0398 28.4783 27.0006 28.1787 26.8603 27.9222L26.1703 26.7222C26.0898 26.5988 26.0469 26.4546 26.0469 26.3072C26.0469 26.1599 26.0898 26.0157 26.1703 25.8922C26.5221 25.4379 26.8144 24.9406 27.0403 24.4122C27.0895 24.2702 27.1832 24.1478 27.3075 24.0631C27.4318 23.9785 27.58 23.9361 27.7303 23.9422H29.0903C29.3776 23.9536 29.6583 23.8541 29.8742 23.6642C30.0902 23.4743 30.2248 23.2087 30.2503 22.9222V21.0222C30.2508 20.8776 30.2229 20.7342 30.1679 20.6004C30.113 20.4665 30.0323 20.3448 29.9303 20.2422C29.8307 20.1383 29.7112 20.0555 29.5789 19.9988C29.4466 19.942 29.3042 19.9126 29.1603 19.9122H27.7903C27.6419 19.9098 27.4975 19.864 27.3749 19.7805C27.2523 19.697 27.1568 19.5794 27.1003 19.4422C26.8669 18.8968 26.5608 18.3855 26.1903 17.9222C26.1001 17.8027 26.0473 17.6592 26.0384 17.5098C26.0295 17.3604 26.0649 17.2116 26.1403 17.0822L26.8203 15.9022C26.9647 15.6489 27.0026 15.3486 26.9257 15.0674C26.8489 14.7861 26.6634 14.5469 26.4103 14.4022L24.7803 13.4222C24.5444 13.2857 24.2647 13.2463 24.0003 13.3122C23.7191 13.3886 23.4787 13.5716 23.3303 13.8222L22.6403 15.0222C22.5661 15.1514 22.4552 15.2556 22.3216 15.3215C22.188 15.3874 22.0379 15.412 21.8903 15.3922C21.3291 15.3223 20.7614 15.3223 20.2003 15.3922C20.0541 15.4113 19.9056 15.3862 19.7737 15.3203C19.6419 15.2544 19.5327 15.1506 19.4603 15.0222L18.7403 13.8322C18.5938 13.581 18.3546 13.3974 18.074 13.3207C17.7935 13.244 17.4942 13.2805 17.2403 13.4222L15.6003 14.3422C15.3473 14.4871 15.1615 14.7256 15.083 15.0062C15.0044 15.2868 15.0393 15.5871 15.1803 15.8422L15.8603 17.0522C15.9437 17.1849 15.9828 17.3407 15.972 17.497C15.9612 17.6534 15.9011 17.8023 15.8003 17.9222C15.4387 18.3826 15.1364 18.8866 14.9003 19.4222C14.8443 19.5591 14.7487 19.676 14.6257 19.758C14.5028 19.84 14.3581 19.8832 14.2103 19.8822H12.8503V19.9222ZM21.0003 25.9222C20.2091 25.9222 19.4358 25.6876 18.778 25.2481C18.1202 24.8086 17.6075 24.1839 17.3047 23.453C17.002 22.7221 16.9228 21.9178 17.0771 21.1419C17.2315 20.366 17.6124 19.6532 18.1718 19.0938C18.7312 18.5344 19.444 18.1534 20.2199 17.9991C20.9958 17.8448 21.8001 17.924 22.531 18.2267C23.2619 18.5295 23.8866 19.0422 24.3261 19.7C24.7657 20.3578 25.0003 21.1311 25.0003 21.9222C25.0003 22.9831 24.5788 24.0005 23.8287 24.7507C23.0785 25.5008 22.0611 25.9222 21.0003 25.9222ZM21.0003 19.4222C20.5058 19.4222 20.0225 19.5689 19.6113 19.8436C19.2002 20.1183 18.8798 20.5087 18.6906 20.9655C18.5013 21.4223 18.4518 21.925 18.5483 22.41C18.6448 22.8949 18.8829 23.3404 19.2325 23.69C19.5821 24.0396 20.0276 24.2777 20.5125 24.3742C20.9975 24.4707 21.5001 24.4212 21.957 24.2319C22.4138 24.0427 22.8042 23.7223 23.0789 23.3112C23.3536 22.9 23.5003 22.4167 23.5003 21.9222C23.5003 21.2592 23.2369 20.6233 22.768 20.1545C22.2992 19.6856 21.6633 19.4222 21.0003 19.4222Z" fill="#F5F5F5"/>
</svg>
